<svg xmlns="http://www.w3.org/2000/svg" width="380" height="482" viewBox="0 0 380 482" font-family="'Courier New', monospace">
  <rect width="380" height="482" fill="#ffffff"/>
  <text x="190" y="48" font-size="18" font-weight="700" fill="#1f2937" text-anchor="middle">Momiji Stationery</text>
  <text x="190" y="68" font-size="10" fill="#6b7280" text-anchor="middle">4-1-1 Sakae, Naka-ku, Nagoya 460-0008</text>
  <text x="190" y="84" font-size="10" fill="#6b7280" text-anchor="middle">Tax ID: T4445556667778</text>
  <line x1="24" y1="104" x2="356" y2="104" stroke="#1f2937" stroke-dasharray="3 3"/>

  <text x="24" y="128" font-size="11" fill="#6b7280">RECEIPT</text>
  <text x="356" y="128" font-size="11" fill="#1f2937" text-anchor="end">No. MS-0530-77</text>
  <text x="24" y="146" font-size="11" fill="#6b7280">Date</text>
  <text x="356" y="146" font-size="11" fill="#1f2937" text-anchor="end">2026-05-30</text>
  <line x1="24" y1="166" x2="356" y2="166" stroke="#1f2937" stroke-dasharray="3 3"/>

  <text x="24" y="230" font-size="12" fill="#1f2937">Notebooks (A5, 10-pack)</text>
  <text x="356" y="230" font-size="12" fill="#1f2937" text-anchor="end">JPY 1,960</text>
  <text x="24" y="243" font-size="10" fill="#6b7280">2 × JPY 980</text>
  <text x="24" y="256" font-size="12" fill="#1f2937">Gel pens (assorted)</text>
  <text x="356" y="256" font-size="12" fill="#1f2937" text-anchor="end">JPY 1,800</text>
  <text x="24" y="269" font-size="10" fill="#6b7280">12 × JPY 150</text>
  <text x="24" y="282" font-size="12" fill="#1f2937">Sticky notes</text>
  <text x="356" y="282" font-size="12" fill="#1f2937" text-anchor="end">JPY 1,200</text>
  <text x="24" y="295" font-size="10" fill="#6b7280">5 × JPY 240</text>
  <line x1="24" y1="322" x2="356" y2="322" stroke="#1f2937" stroke-dasharray="3 3"/>
  <text x="24" y="340" font-size="11" fill="#6b7280">Subtotal</text>
  <text x="356" y="340" font-size="11" fill="#1f2937" text-anchor="end">JPY 4,960</text>
  <text x="24" y="360" font-size="11" fill="#6b7280">Tax (10%)</text>
  <text x="356" y="360" font-size="11" fill="#1f2937" text-anchor="end">JPY 496</text>
  <text x="24" y="384" font-size="14" font-weight="700" fill="#1f2937">TOTAL</text>
  <text x="356" y="384" font-size="14" font-weight="700" fill="#1f2937" text-anchor="end">JPY 5,456</text>
  <text x="190" y="420" font-size="10" fill="#6b7280" text-anchor="middle">Paid (card)</text>
  <text x="190" y="440" font-size="9" fill="#6b7280" text-anchor="middle">Fictional sample — OCR Cockpit demo</text>
</svg>