<svg xmlns="http://www.w3.org/2000/svg" width="760" height="680" viewBox="0 0 760 680" font-family="Helvetica, Arial, sans-serif">
  <rect width="760" height="680" fill="#ffffff"/>
  <rect x="0" y="0" width="760" height="8" fill="#2563eb"/>

  <text x="40" y="64" font-size="22" font-weight="700" fill="#1f2937">Sakura Print Works</text>
  <text x="40" y="86" font-size="12" fill="#6b7280">3-15-2 Naka-ku, Yokohama 231-0023</text>
  <text x="40" y="104" font-size="12" fill="#6b7280">Tax ID: T9870001234567</text>

  <text x="720" y="60" font-size="28" font-weight="700" fill="#2563eb" text-anchor="end">INVOICE</text>
  <text x="720" y="86" font-size="13" fill="#1f2937" text-anchor="end">No. SP-260417</text>
  <text x="720" y="106" font-size="12" fill="#6b7280" text-anchor="end">Issued: 2026-04-17</text>
  <text x="720" y="124" font-size="12" fill="#6b7280" text-anchor="end">Due: 2026-05-31</text>

  <text x="40" y="170" font-size="11" fill="#6b7280">BILL TO</text>
  <text x="40" y="190" font-size="14" fill="#1f2937">Aoyama Design Studio</text>

  <line x1="40" y1="360" x2="720" y2="360" stroke="#2563eb" stroke-width="2"/>
  <text x="52" y="382" font-size="11" font-weight="700" fill="#6b7280">DESCRIPTION</text>
  <text x="510" y="382" font-size="11" font-weight="700" fill="#6b7280" text-anchor="end">QTY</text>
  <text x="610" y="382" font-size="11" font-weight="700" fill="#6b7280" text-anchor="end">UNIT</text>
  <text x="708" y="382" font-size="11" font-weight="700" fill="#6b7280" text-anchor="end">AMOUNT</text>

    <text x="52" y="396" font-size="13" fill="#1f2937">Business cards (1,000 ea, 4 staff)</text>
    <text x="510" y="396" font-size="13" fill="#1f2937" text-anchor="end">4</text>
    <text x="610" y="396" font-size="13" fill="#1f2937" text-anchor="end">JPY 3,500</text>
    <text x="708" y="396" font-size="13" fill="#1f2937" text-anchor="end">JPY 14,000</text>
<rect x="40" y="406" width="680" height="30" fill="#f9fafb"/>
    <text x="52" y="426" font-size="13" fill="#1f2937">A2 poster, full color</text>
    <text x="510" y="426" font-size="13" fill="#1f2937" text-anchor="end">50</text>
    <text x="610" y="426" font-size="13" fill="#1f2937" text-anchor="end">JPY 480</text>
    <text x="708" y="426" font-size="13" fill="#1f2937" text-anchor="end">JPY 24,000</text>
  <line x1="40" y1="472" x2="720" y2="472" stroke="#e5e7eb" stroke-width="1"/>

  <text x="580" y="498" font-size="13" fill="#6b7280" text-anchor="end">Subtotal</text>
  <text x="708" y="498" font-size="13" fill="#1f2937" text-anchor="end">JPY 38,000</text>
  <text x="580" y="522" font-size="13" fill="#6b7280" text-anchor="end">Tax (10%)</text>
  <text x="708" y="522" font-size="13" fill="#1f2937" text-anchor="end">JPY 3,800</text>
  <line x1="520" y1="536" x2="720" y2="536" stroke="#1f2937" stroke-width="1"/>
  <text x="580" y="560" font-size="15" font-weight="700" fill="#1f2937" text-anchor="end">Total</text>
  <text x="708" y="560" font-size="15" font-weight="700" fill="#2563eb" text-anchor="end">JPY 41,800</text>

  <text x="40" y="610" font-size="12" fill="#6b7280">Payment terms: Net 45</text>
  <text x="40" y="630" font-size="11" fill="#6b7280">This is a fictional sample document generated for the OCR Cockpit demo.</text>
</svg>